<svg xmlns="http://www.w3.org/2000/svg" viewBox="0 0 256 256" width="256" height="256">
  <!-- 背景圆 -->
  <circle cx="128" cy="128" r="128" fill="#ffffff"/>
  
  <!-- 蓝色扇区 -->
  <path d="M128 0 L128 128 L0 128 A128 128 0 0 1 128 0 Z" fill="#4285F4"/>
  
  <!-- 红色扇区 -->
  <path d="M128 0 L128 128 L256 128 A128 128 0 0 1 128 0 Z" fill="#EA4335"/>
  
  <!-- 黄色扇区 -->
  <path d="M128 256 L128 128 L256 128 A128 128 0 0 1 128 256 Z" fill="#FBBC05"/>
  
  <!-- 绿色扇区 -->
  <path d="M128 256 L128 128 L0 128 A128 128 0 0 1 128 256 Z" fill="#34A853"/>
  
  <!-- 中间圆 -->
  <circle cx="128" cy="128" r="68" fill="#ffffff"/>
  
  <!-- 中心小圆 -->
  <circle cx="128" cy="128" r="34" fill="#4285F4"/>
</svg>